<svg viewBox="0 0 640 440" xmlns="http://www.w3.org/2000/svg" role="img" aria-label="Трёхэтажный дом с террасами на крыше">
  <defs>
    <linearGradient id="sky3" x1="0" y1="0" x2="0" y2="1">
      <stop offset="0" stop-color="#EFF5F0"/><stop offset="1" stop-color="#D9E8DC"/>
    </linearGradient>
  </defs>
  <rect width="640" height="440" fill="url(#sky3)"/>
  <path d="M0 312 Q180 296 360 306 T640 300 V440 H0Z" fill="#CADDCE" opacity=".55"/>
  <!-- этажи -->
  <rect x="170" y="212" width="290" height="100" fill="#FFFFFF"/>
  <rect x="196" y="136" width="238" height="78" fill="#F5F9F6"/>
  <rect x="228" y="74" width="174" height="64" fill="#FAFCFA"/>
  <!-- перекрытия -->
  <rect x="162" y="204" width="306" height="9" rx="2" fill="#123A26"/>
  <rect x="188" y="128" width="254" height="9" rx="2" fill="#123A26"/>
  <rect x="220" y="66" width="190" height="9" rx="2" fill="#123A26"/>
  <!-- ограждение верхней террасы -->
  <g stroke="#5A7367" stroke-width="2.4" opacity=".8">
    <path d="M228 66V44M268 66V44M308 66V44M348 66V44M388 66V44"/>
    <path d="M222 46h192"/>
  </g>
  <!-- окна -->
  <g fill="#8FB8CE" opacity=".86">
    <rect x="246" y="88" width="48" height="42" rx="2"/>
    <rect x="308" y="88" width="48" height="42" rx="2"/>
    <rect x="216" y="152" width="60" height="52" rx="2"/>
    <rect x="292" y="152" width="60" height="52" rx="2"/>
    <rect x="366" y="152" width="52" height="52" rx="2"/>
  </g>
  <g fill="none" stroke="#123A26" stroke-width="2.6">
    <rect x="246" y="88" width="48" height="42" rx="2"/>
    <rect x="308" y="88" width="48" height="42" rx="2"/>
    <rect x="216" y="152" width="60" height="52" rx="2"/>
    <rect x="292" y="152" width="60" height="52" rx="2"/>
    <rect x="366" y="152" width="52" height="52" rx="2"/>
  </g>
  <!-- первый этаж: панорама -->
  <rect x="192" y="232" width="170" height="80" rx="3" fill="#7FAFC7" opacity=".85"/>
  <rect x="192" y="232" width="170" height="80" rx="3" fill="none" stroke="#123A26" stroke-width="3"/>
  <path d="M248 232v80M305 232v80" stroke="#123A26" stroke-width="2.6"/>
  <rect x="386" y="244" width="46" height="68" rx="3" fill="#1B4A32"/>
  <circle cx="424" cy="278" r="2.6" fill="#5CAC6D"/>
  <rect y="312" width="640" height="128" fill="#C7DBCB"/>
  <ellipse cx="320" cy="326" rx="215" ry="10" fill="#0D4228" opacity=".07"/>
</svg>
