<svg viewBox="0 0 640 440" xmlns="http://www.w3.org/2000/svg" role="img" aria-label="Дом из газобетона со скатной кровлей">
  <defs>
    <linearGradient id="sky4" x1="0" y1="0" x2="0" y2="1">
      <stop offset="0" stop-color="#EDF4EE"/><stop offset="1" stop-color="#D5E5D9"/>
    </linearGradient>
  </defs>
  <rect width="640" height="440" fill="url(#sky4)"/>
  <path d="M0 304 Q140 284 300 298 T640 294 V440 H0Z" fill="#CADDCE" opacity=".6"/>
  <!-- корпус -->
  <path d="M180 190 L400 190 L400 304 L180 304Z" fill="#FFFFFF"/>
  <path d="M400 190 L486 208 L486 304 L400 304Z" fill="#E9F0EA"/>
  <!-- двускатная кровля -->
  <path d="M164 196 L290 116 L502 202 L486 210 L400 192 L180 192Z" fill="#123A26"/>
  <path d="M290 116 L296 112 L508 198 L502 202Z" fill="#0A2A1B"/>
  <!-- фронтон -->
  <path d="M212 190 L290 140 L368 190Z" fill="#F4F8F5"/>
  <rect x="272" y="156" width="36" height="34" rx="2" fill="#8FB8CE" opacity=".85"/>
  <rect x="272" y="156" width="36" height="34" rx="2" fill="none" stroke="#123A26" stroke-width="2.4"/>
  <!-- окна -->
  <g fill="#8FB8CE" opacity=".86">
    <rect x="204" y="216" width="54" height="60" rx="2"/>
    <rect x="278" y="216" width="54" height="60" rx="2"/>
  </g>
  <g fill="none" stroke="#123A26" stroke-width="2.8">
    <rect x="204" y="216" width="54" height="60" rx="2"/>
    <rect x="278" y="216" width="54" height="60" rx="2"/>
  </g>
  <rect x="352" y="228" width="42" height="76" rx="3" fill="#1B4A32"/>
  <circle cx="386" cy="266" r="2.6" fill="#5CAC6D"/>
  <!-- дымоход -->
  <rect x="412" y="140" width="22" height="42" rx="2" fill="#1B4A32"/>
  <rect y="304" width="640" height="136" fill="#C7DBCB"/>
  <ellipse cx="320" cy="318" rx="210" ry="10" fill="#0D4228" opacity=".07"/>
  <g fill="#0D4228" opacity=".12">
    <path d="M92 304c0-32 15-58 26-58s26 26 26 58z"/>
    <path d="M540 304c0-24 11-44 20-44s20 20 20 44z"/>
  </g>
</svg>
